<svg width="10" height="10" viewBox="0 0 10 10" fill="none" xmlns="http://www.w3.org/2000/svg">
<path d="M1.11093 1.11091C0.915656 1.30618 0.915667 1.62276 1.11093 1.81802L4.29291 5L1.11093 8.18198C0.915656 8.37725 0.915667 8.69383 1.11093 8.88909C1.30619 9.08434 1.62276 9.08436 1.81803 8.88909L5.00001 5.7071L8.18199 8.88909C8.37725 9.08434 8.69383 9.08436 8.8891 8.88909C9.08437 8.69382 9.08436 8.37724 8.8891 8.18198L5.70712 5L8.8891 1.81802C9.08437 1.62275 9.08436 1.30617 8.8891 1.11091C8.69384 0.915652 8.37726 0.915641 8.18199 1.11091L5.00001 4.29289L1.81803 1.11091C1.62277 0.915652 1.3062 0.915641 1.11093 1.11091Z" fill="#1E3253"/>
</svg>
