<svg width="20" height="22" viewBox="0 0 20 22" fill="none" xmlns="http://www.w3.org/2000/svg">
<path d="M1 3.04523L3.303 17.1212C3.4223 17.8505 3.74129 18.5325 4.22459 19.0915C4.7079 19.6506 5.33661 20.0648 6.041 20.2882L6.369 20.3922C8.73157 21.1423 11.2684 21.1423 13.631 20.3922L13.959 20.2882C14.6633 20.0648 15.2919 19.6508 15.7752 19.0919C16.2585 18.5331 16.5775 17.8513 16.697 17.1222L19 3.04523M1 3.04523C1 4.1498 5.02944 5.04523 10 5.04523C14.9706 5.04523 19 4.1498 19 3.04523M1 3.04523C1 1.94066 5.02944 1.04523 10 1.04523C14.9706 1.04523 19 1.94066 19 3.04523" stroke="white" stroke-width="2" stroke-linecap="round" stroke-linejoin="round"/>
</svg>
