<svg width="24" height="32" viewBox="0 0 24 32" fill="none" xmlns="http://www.w3.org/2000/svg">
<path d="M13 13C13 12.7348 12.8947 12.4804 12.7072 12.2929C12.5196 12.1054 12.2653 12 12 12C11.7348 12 11.4805 12.1054 11.2929 12.2929C11.1054 12.4804 11 12.7348 11 13V20.586L8.70804 18.292C8.61507 18.199 8.50469 18.1253 8.38321 18.075C8.26173 18.0246 8.13153 17.9987 8.00004 17.9987C7.86856 17.9987 7.73835 18.0246 7.61688 18.075C7.4954 18.1253 7.38502 18.199 7.29204 18.292C7.19907 18.385 7.12531 18.4954 7.075 18.6168C7.02468 18.7383 6.99878 18.8685 6.99878 19C6.99878 19.1315 7.02468 19.2617 7.075 19.3832C7.12531 19.5046 7.19907 19.615 7.29204 19.708L11.292 23.708C11.3849 23.8011 11.4953 23.875 11.6168 23.9254C11.7383 23.9758 11.8685 24.0018 12 24.0018C12.1316 24.0018 12.2618 23.9758 12.3833 23.9254C12.5048 23.875 12.6152 23.8011 12.708 23.708L16.708 19.708C16.801 19.615 16.8748 19.5046 16.9251 19.3832C16.9754 19.2617 17.0013 19.1315 17.0013 19C17.0013 18.8685 16.9754 18.7383 16.9251 18.6168C16.8748 18.4954 16.801 18.385 16.708 18.292C16.6151 18.199 16.5047 18.1253 16.3832 18.075C16.2617 18.0246 16.1315 17.9987 16 17.9987C15.8686 17.9987 15.7384 18.0246 15.6169 18.075C15.4954 18.1253 15.385 18.199 15.292 18.292L13 20.586V13Z" fill="#FCFCFC"/>
<path d="M24 28V9L15 0H4C2.93913 0 1.92172 0.421427 1.17157 1.17157C0.421427 1.92172 0 2.93913 0 4V28C0 29.0609 0.421427 30.0783 1.17157 30.8284C1.92172 31.5786 2.93913 32 4 32H20C21.0609 32 22.0783 31.5786 22.8284 30.8284C23.5786 30.0783 24 29.0609 24 28ZM15 6C15 6.79565 15.3161 7.55871 15.8787 8.12132C16.4413 8.68393 17.2044 9 18 9H22V28C22 28.5304 21.7893 29.0391 21.4142 29.4142C21.0391 29.7893 20.5304 30 20 30H4C3.46957 30 2.96086 29.7893 2.58579 29.4142C2.21071 29.0391 2 28.5304 2 28V4C2 3.46957 2.21071 2.96086 2.58579 2.58579C2.96086 2.21071 3.46957 2 4 2H15V6Z" fill="#FCFCFC"/>
</svg>
